<svg xmlns="http://www.w3.org/2000/svg" width="22" height="22" viewBox="0 0 16 16" preserveAspectRatio="xMidYMid meet"><path d="M.006 1.082l.04.068a.57.57 0 0 0 .018.03l.018.033c.006.008.03.05.058.098l.06.103.013.023.06.107c.007.01.022.036.04.067l.28.482.044.076.044.077.01.018c.002.002.007.012.013.022l.014.024c.004.005.007.01.02.035l.01.018c.001.002.007.01.012.02l.086.15.06.102.034.06.122.21.01.018.024.042.02.037.057.1.042.073.027.047.012.02.04.066.364.63c.001.002.025.043.053.09l.056.098.01.02.082.142.086.15.02.035.01.018c0 .001.006.012.014.025l.136.236.017.03.05.085.048.083.035.06.026.045.102.178.04.07.014.023.028.048.02.034c0 .001.018.03.03.05l.1.172.016.028.02.03c0 .002.024.043.032.056l.014.024.262.454.012.02.033.058.056.096.078.134.167.3.044.077.038.065.01.018c0 .001.005.01.012.02l.08.14.084.144.016.028.12.21.01.018a.65.65 0 0 0 .018.03l.018.03.018.03.11.2.1.175c.006.008.013.02.022.036l.022.038.03.05.086.15.09.157a.27.27 0 0 0 .012.02l.033.058.108.187.013.022.04.072.115.198.026.045.02.035.01.018.1.17.02.034c.006.01.012.02.012.023.008.012.043.073.085.147l.24.415.036.062.048.082.035.06.047.082.048.083.14.245.032.056.04.07.045.078c.001.002.006.01.01.02l.1.174.13.222.024.043.014.025c0 .001.007.013.016.027l.016.028c0 .001.012.022.027.047l.125.217.018.032.022.038.022.04.044.077.042.073.12.205.085.147.06.105.05.088c.006.008.033.054.064.11l.077.133.05.084.05.086.01.018a8.02 8.02 0 0 1 .07.122l.073.126.054.093.043.075c0 .001.005.01.01.018l.02.035.025.044.172.298.1.155.042.074.08.138.05.086.028.047.017.03a.22.22 0 0 0 .013.022l.013.022a1.55 1.55 0 0 0 .026.045l.038.065.02.032c.004.006.01.015.01.02.01.014.03.05.054.092l.045.078c0 .001.006.01.013.022l.02.032.013.023.04.07.018.032.017.03c.004.01.01.02.014.025l.02.033.013.022c0 .001.006.01.013.023l.023.04.055.095c.002.003.007.012.01.02.01.015.012.016.016.006l.02-.037.067-.115.068-.118.02-.035.012-.02c0-.001.006-.01.013-.022l.013-.022c0-.001.057-.1.064-.11l.045-.078c.001-.002.008-.014.017-.028l.016-.027c0-.001.006-.01.013-.022l.013-.022c0-.001.006-.012.014-.025l.124-.214.033-.058.013-.022.114-.198.682-1.18.016-.028.02-.03.12-.2.013-.022.064-.11.058-.103c.006-.008.01-.014.012-.018s.01-.017.016-.026l.08-.14.08-.138.018-.032.06-.102.07-.122.048-.083.1-.175c.008-.013.014-.025.014-.027l.02-.033.09-.155c.007-.01.013-.02.018-.03l.02-.035.126-.22.02-.035.016-.03.01-.018.028-.05.062-.108.056-.1.018-.028.108-.188.016-.028.046-.08.03-.05.03-.05.066-.115.068-.117.156-.27.024-.042.27-.47c.003-.005.008-.013.01-.018l.014-.025.026-.046.023-.04.128-.22.037-.065.01-.018c.002-.002.008-.012.013-.022l.03-.054.033-.058.015-.026.023-.04.028-.05.04-.068.038-.066.01-.018.034-.058.025-.043.055-.094.34-.592.02-.037.118-.204.012-.02.04-.067.037-.064.01-.02.132-.228.108-.188.1-.156.017-.03.01-.018a.54.54 0 0 1 .02-.035l.053-.092.166-.288.026-.043.064-.112.106-.184.014-.024.052-.1.065-.112.014-.024.088-.152.03-.053.03-.05.07-.123.013-.023.086-.15.09-.154.013-.022.045-.078.043-.075.04-.07.062-.107.033-.056.065-.114.146-.253.186-.323.015-.027.027-.046c.005-.01.01-.02.013-.022l.018-.03.012-.02c.002-.004.036-.063.046-.08l.036-.062.04-.07.01-.018.056-.098.08-.14c.004-.008.01-.017.012-.02l.034-.06.164-.284.028-.05c.006-.01.013-.022.015-.025a2.13 2.13 0 0 1 .057-.099l.022-.04.02-.035.113-.196.02-.032.028-.047a1.15 1.15 0 0 1 .033-.059l.184-.32.017-.03.05-.085.05-.085.047-.082.028-.046a1.41 1.41 0 0 1 .047-.084l.04-.072.032-.054-3.076-.001c-1.692 0-3.076 0-3.078.002s-.134.23-.198.342L8.07 4.15 8 4.27c-.001 0-.017-.026-.035-.06l-1.17-2.023L6.683 2l-.016-.027-.08-.14-.08-.138-.04-.07-.314-.542H-.001l.006.01z"/></svg>